# 3ds Max Wavefront OBJ Exporter v0.97b - (c)2007 guruware
# File Created: 06.09.2015 13:13:31

#
# object NE
#

v  0.3750 0.1250 -0.3750
v  0.3750 0.1250 -0.5000
v  0.5000 0.1250 -0.5000
v  0.5000 0.1250 -0.3750
v  0.3750 0.8750 -0.3750
v  0.5000 0.8750 -0.3750
v  0.5000 0.8750 -0.5000
v  0.3750 0.8750 -0.5000
# 8 vertices

vn 0.0000 -1.0000 -0.0000
vn 0.0000 1.0000 -0.0000
vn 0.0000 0.0000 1.0000
vn 1.0000 0.0000 -0.0000
vn 0.0000 0.0000 -1.0000
vn -1.0000 0.0000 -0.0000
# 6 vertex normals

vt 0.8750 0.1250 0.0000
vt 0.8750 -0.0000 0.0000
vt 1.0000 0.0000 0.0000
vt 1.0000 0.1250 0.0000
vt 1.0000 0.8750 0.0000
vt 0.8750 0.8750 0.0000
vt 0.1250 0.8750 0.0000
vt 0.1250 1.0000 0.0000
vt 0.8750 1.0000 0.0000
vt -0.0000 0.1250 0.0000
vt 0.1250 0.1250 0.0000
vt 0.0000 0.8750 0.0000
vt 0.1250 -0.0000 0.0000
# 13 texture coords

g NE
s 2
f 1/1/1 2/2/1 3/3/1 
f 3/3/1 4/4/1 1/1/1 
s 4
f 5/1/2 6/4/2 7/3/2 
f 7/3/2 8/2/2 5/1/2 
s 8
f 1/1/3 4/4/3 6/5/3 
f 6/5/3 5/6/3 1/1/3 
s 16
f 4/7/4 3/8/4 7/9/4 
f 7/9/4 6/6/4 4/7/4 
s 32
f 3/10/5 2/11/5 8/7/5 
f 8/7/5 7/12/5 3/10/5 
s 64
f 2/13/6 1/11/6 5/1/6 
f 5/1/6 8/2/6 2/13/6 
# 12 faces

#
# object NW
#

v  -0.5000 0.1250 -0.3750
v  -0.5000 0.1250 -0.5000
v  -0.3750 0.1250 -0.5000
v  -0.3750 0.1250 -0.3750
v  -0.5000 0.8750 -0.3750
v  -0.3750 0.8750 -0.3750
v  -0.3750 0.8750 -0.5000
v  -0.5000 0.8750 -0.5000
# 8 vertices

vn 0.0000 -1.0000 -0.0000
vn 0.0000 1.0000 -0.0000
vn 0.0000 0.0000 1.0000
vn 1.0000 0.0000 -0.0000
vn 0.0000 0.0000 -1.0000
vn -1.0000 0.0000 -0.0000
# 6 vertex normals

vt -0.0000 0.1250 0.0000
vt -0.0000 0.0000 0.0000
vt 0.1250 -0.0000 0.0000
vt 0.1250 0.1250 0.0000
vt 0.1250 0.8750 0.0000
vt 0.0000 0.8750 0.0000
vt 0.8750 -0.0000 0.0000
vt 0.8750 0.1250 0.0000
vt 1.0000 0.1250 0.0000
vt 1.0000 0.8750 0.0000
vt 0.8750 0.8750 0.0000
vt 0.1250 1.0000 0.0000
vt 0.8750 1.0000 0.0000
# 13 texture coords

g NW
s 2
f 9/14/7 10/15/7 11/16/7 
f 11/16/7 12/17/7 9/14/7 
s 4
f 13/14/8 14/17/8 15/16/8 
f 15/16/8 16/15/8 13/14/8 
s 8
f 9/14/9 12/17/9 14/18/9 
f 14/18/9 13/19/9 9/14/9 
s 16
f 12/17/10 11/16/10 15/20/10 
f 15/20/10 14/21/10 12/17/10 
s 32
f 11/21/11 10/22/11 16/23/11 
f 16/23/11 15/24/11 11/21/11 
s 64
f 10/25/12 9/18/12 13/24/12 
f 13/24/12 16/26/12 10/25/12 
# 12 faces

#
# object SW
#

v  -0.5000 0.1250 0.5000
v  -0.5000 0.1250 0.3750
v  -0.3750 0.1250 0.3750
v  -0.3750 0.1250 0.5000
v  -0.5000 0.8750 0.5000
v  -0.3750 0.8750 0.5000
v  -0.3750 0.8750 0.3750
v  -0.5000 0.8750 0.3750
# 8 vertices

vn 0.0000 -1.0000 -0.0000
vn 0.0000 1.0000 -0.0000
vn 0.0000 0.0000 1.0000
vn 1.0000 0.0000 -0.0000
vn 0.0000 0.0000 -1.0000
vn -1.0000 0.0000 -0.0000
# 6 vertex normals

vt 0.0000 1.0000 0.0000
vt 0.0000 0.8750 0.0000
vt 0.1250 0.8750 0.0000
vt 0.1250 1.0000 0.0000
vt 1.0000 0.1250 0.0000
vt 0.8750 0.1250 0.0000
vt 0.8750 0.8750 0.0000
vt 1.0000 0.8750 0.0000
vt 0.8750 1.0000 0.0000
vt 0.1250 0.1250 0.0000
vt -0.0000 0.1250 0.0000
vt 0.1250 -0.0000 0.0000
vt 0.8750 -0.0000 0.0000
# 13 texture coords

g SW
s 2
f 17/27/13 18/28/13 19/29/13 
f 19/29/13 20/30/13 17/27/13 
s 4
f 21/27/14 22/30/14 23/29/14 
f 23/29/14 24/28/14 21/27/14 
s 8
f 17/31/15 20/32/15 22/33/15 
f 22/33/15 21/34/15 17/31/15 
s 16
f 20/30/16 19/29/16 23/33/16 
f 23/33/16 22/35/16 20/30/16 
s 32
f 19/36/17 18/37/17 24/28/17 
f 24/28/17 23/29/17 19/36/17 
s 64
f 18/36/18 17/38/18 21/39/18 
f 21/39/18 24/32/18 18/36/18 
# 12 faces

#
# object SE
#

v  0.3750 0.1250 0.5000
v  0.3750 0.1250 0.3750
v  0.5000 0.1250 0.3750
v  0.5000 0.1250 0.5000
v  0.3750 0.8750 0.5000
v  0.5000 0.8750 0.5000
v  0.5000 0.8750 0.3750
v  0.3750 0.8750 0.3750
# 8 vertices

vn 0.0000 -1.0000 -0.0000
vn 0.0000 1.0000 -0.0000
vn 0.0000 0.0000 1.0000
vn 1.0000 0.0000 -0.0000
vn 0.0000 0.0000 -1.0000
vn -1.0000 0.0000 -0.0000
# 6 vertex normals

vt 0.8750 1.0000 0.0000
vt 0.8750 0.8750 0.0000
vt 1.0000 0.8750 0.0000
vt 1.0000 1.0000 0.0000
vt 0.1250 0.1250 0.0000
vt -0.0000 0.1250 0.0000
vt 0.0000 0.8750 0.0000
vt 0.1250 0.8750 0.0000
vt 0.1250 -0.0000 0.0000
vt 0.8750 0.1250 0.0000
vt 0.8750 -0.0000 0.0000
vt 1.0000 0.1250 0.0000
vt 0.1250 1.0000 0.0000
# 13 texture coords

g SE
s 2
f 25/40/19 26/41/19 27/42/19 
f 27/42/19 28/43/19 25/40/19 
s 4
f 29/40/20 30/43/20 31/42/20 
f 31/42/20 32/41/20 29/40/20 
s 8
f 25/44/21 28/45/21 30/46/21 
f 30/46/21 29/47/21 25/44/21 
s 16
f 28/48/22 27/44/22 31/49/22 
f 31/49/22 30/50/22 28/48/22 
s 32
f 27/51/23 26/49/23 32/41/23 
f 32/41/23 31/42/23 27/51/23 
s 64
f 26/47/24 25/52/24 29/40/24 
f 29/40/24 32/41/24 26/47/24 
# 12 faces

#
# object BN
#

v  -0.3750 0.0000 -0.3750
v  -0.3750 0.0000 -0.5000
v  0.3750 0.0000 -0.5000
v  0.3750 0.0000 -0.3750
v  -0.3750 0.1250 -0.3750
v  0.3750 0.1250 -0.3750
v  0.3750 0.1250 -0.5000
v  -0.3750 0.1250 -0.5000
# 8 vertices

vn 0.0000 -1.0000 -0.0000
vn 0.0000 1.0000 -0.0000
vn 0.0000 0.0000 1.0000
vn 1.0000 0.0000 -0.0000
vn 0.0000 0.0000 -1.0000
vn -1.0000 0.0000 -0.0000
# 6 vertex normals

vt 0.8750 0.8750 0.0000
vt 0.8750 1.0000 0.0000
vt 0.1250 1.0000 0.0000
vt 0.1250 0.8750 0.0000
vt 0.1250 0.1250 0.0000
vt 0.8750 0.1250 0.0000
vt 0.8750 -0.0000 0.0000
vt 0.1250 -0.0000 0.0000
vt -0.0000 0.1250 0.0000
vt -0.0000 0.0000 0.0000
# 10 texture coords

g BN
s 2
f 33/53/25 34/54/25 35/55/25 
f 35/55/25 36/56/25 33/53/25 
s 4
f 37/57/26 38/58/26 39/59/26 
f 39/59/26 40/60/26 37/57/26 
s 8
f 33/60/27 36/59/27 38/58/27 
f 38/58/27 37/57/27 33/60/27 
s 16
f 36/61/28 35/62/28 39/60/28 
f 39/60/28 38/57/28 36/61/28 
s 32
f 35/60/29 34/59/29 40/58/29 
f 40/58/29 39/57/29 35/60/29 
s 64
f 34/62/30 33/61/30 37/57/30 
f 37/57/30 40/60/30 34/62/30 
# 12 faces

#
# object BS
#

v  -0.3750 0.0000 0.5000
v  -0.3750 0.0000 0.3750
v  0.3750 0.0000 0.3750
v  0.3750 0.0000 0.5000
v  -0.3750 0.1250 0.5000
v  0.3750 0.1250 0.5000
v  0.3750 0.1250 0.3750
v  -0.3750 0.1250 0.3750
# 8 vertices

vn 0.0000 -1.0000 -0.0000
vn 0.0000 1.0000 -0.0000
vn 0.0000 0.0000 1.0000
vn 1.0000 0.0000 -0.0000
vn 0.0000 0.0000 -1.0000
vn -1.0000 0.0000 -0.0000
# 6 vertex normals

vt 0.8750 -0.0000 0.0000
vt 0.8750 0.1250 0.0000
vt 0.1250 0.1250 0.0000
vt 0.1250 -0.0000 0.0000
vt 0.1250 1.0000 0.0000
vt 0.8750 1.0000 0.0000
vt 0.8750 0.8750 0.0000
vt 0.1250 0.8750 0.0000
vt 0.0000 1.0000 0.0000
vt 0.0000 0.8750 0.0000
# 10 texture coords

g BS
s 2
f 41/63/31 42/64/31 43/65/31 
f 43/65/31 44/66/31 41/63/31 
s 4
f 45/67/32 46/68/32 47/69/32 
f 47/69/32 48/70/32 45/67/32 
s 8
f 41/63/33 44/66/33 46/65/33 
f 46/65/33 45/64/33 41/63/33 
s 16
f 44/71/34 43/72/34 47/70/34 
f 47/70/34 46/67/34 44/71/34 
s 32
f 43/63/35 42/66/35 48/65/35 
f 48/65/35 47/64/35 43/63/35 
s 64
f 42/72/36 41/71/36 45/67/36 
f 45/67/36 48/70/36 42/72/36 
# 12 faces

#
# object TS
#

v  -0.3750 0.8750 0.5000
v  -0.3750 0.8750 0.3750
v  0.3750 0.8750 0.3750
v  0.3750 0.8750 0.5000
v  -0.3750 1.0000 0.5000
v  0.3750 1.0000 0.5000
v  0.3750 1.0000 0.3750
v  -0.3750 1.0000 0.3750
# 8 vertices

vn 0.0000 -1.0000 -0.0000
vn 0.0000 1.0000 -0.0000
vn 0.0000 0.0000 1.0000
vn 1.0000 0.0000 -0.0000
vn 0.0000 0.0000 -1.0000
vn -1.0000 0.0000 -0.0000
# 6 vertex normals

vt 0.1250 1.0000 0.0000
vt 0.1250 0.8750 0.0000
vt 0.8750 0.8750 0.0000
vt 0.8750 1.0000 0.0000
vt 0.8750 -0.0000 0.0000
vt 0.1250 -0.0000 0.0000
vt 0.1250 0.1250 0.0000
vt 0.8750 0.1250 0.0000
vt 1.0000 0.8750 0.0000
vt 1.0000 1.0000 0.0000
# 10 texture coords

g TS
s 2
f 49/73/37 50/74/37 51/75/37 
f 51/75/37 52/76/37 49/73/37 
s 4
f 53/77/38 54/78/38 55/79/38 
f 55/79/38 56/80/38 53/77/38 
s 8
f 49/75/39 52/74/39 54/73/39 
f 54/73/39 53/76/39 49/75/39 
s 16
f 52/76/40 51/75/40 55/81/40 
f 55/81/40 54/82/40 52/76/40 
s 32
f 51/75/41 50/74/41 56/73/41 
f 56/73/41 55/76/41 51/75/41 
s 64
f 50/75/42 49/76/42 53/82/42 
f 53/82/42 56/81/42 50/75/42 
# 12 faces

#
# object TN
#

v  -0.3750 0.8750 -0.3750
v  -0.3750 0.8750 -0.5000
v  0.3750 0.8750 -0.5000
v  0.3750 0.8750 -0.3750
v  -0.3750 1.0000 -0.3750
v  0.3750 1.0000 -0.3750
v  0.3750 1.0000 -0.5000
v  -0.3750 1.0000 -0.5000
# 8 vertices

vn 0.0000 -1.0000 -0.0000
vn 0.0000 1.0000 -0.0000
vn 0.0000 0.0000 1.0000
vn 1.0000 0.0000 -0.0000
vn 0.0000 0.0000 -1.0000
vn -1.0000 0.0000 -0.0000
# 6 vertex normals

vt 0.1250 0.1250 0.0000
vt 0.1250 -0.0000 0.0000
vt 0.8750 -0.0000 0.0000
vt 0.8750 0.1250 0.0000
vt 0.8750 0.8750 0.0000
vt 0.1250 0.8750 0.0000
vt 0.1250 1.0000 0.0000
vt 0.8750 1.0000 0.0000
vt 1.0000 0.0000 0.0000
vt 1.0000 0.1250 0.0000
# 10 texture coords

g TN
s 2
f 57/83/43 58/84/43 59/85/43 
f 59/85/43 60/86/43 57/83/43 
s 4
f 61/87/44 62/88/44 63/89/44 
f 63/89/44 64/90/44 61/87/44 
s 8
f 57/88/45 60/87/45 62/90/45 
f 62/90/45 61/89/45 57/88/45 
s 16
f 60/86/46 59/85/46 63/91/46 
f 63/91/46 62/92/46 60/86/46 
s 32
f 59/88/47 58/87/47 64/90/47 
f 64/90/47 63/89/47 59/88/47 
s 64
f 58/85/48 57/86/48 61/92/48 
f 61/92/48 64/91/48 58/85/48 
# 12 faces

#
# object TE
#

v  0.3750 0.8750 0.3750
v  0.3750 0.8750 -0.3750
v  0.5000 0.8750 -0.3750
v  0.5000 0.8750 0.3750
v  0.3750 1.0000 0.3750
v  0.5000 1.0000 0.3750
v  0.5000 1.0000 -0.3750
v  0.3750 1.0000 -0.3750
# 8 vertices

vn 0.0000 -1.0000 -0.0000
vn 0.0000 1.0000 -0.0000
vn 0.0000 0.0000 1.0000
vn 1.0000 0.0000 -0.0000
vn 0.0000 0.0000 -1.0000
vn -1.0000 0.0000 -0.0000
# 6 vertex normals

vt 0.8750 0.8750 0.0000
vt 0.8750 0.1250 0.0000
vt 1.0000 0.1250 0.0000
vt 1.0000 0.8750 0.0000
vt 0.1250 0.1250 0.0000
vt -0.0000 0.1250 0.0000
vt 0.0000 0.8750 0.0000
vt 0.1250 0.8750 0.0000
vt 1.0000 1.0000 0.0000
vt 0.8750 1.0000 0.0000
# 10 texture coords

g TE
s 2
f 65/93/49 66/94/49 67/95/49 
f 67/95/49 68/96/49 65/93/49 
s 4
f 69/97/50 70/98/50 71/99/50 
f 71/99/50 72/100/50 69/97/50 
s 8
f 65/93/51 68/96/51 70/101/51 
f 70/101/51 69/102/51 65/93/51 
s 16
f 68/94/52 67/93/52 71/96/52 
f 71/96/52 70/95/52 68/94/52 
s 32
f 67/96/53 66/93/53 72/102/53 
f 72/102/53 71/101/53 67/96/53 
s 64
f 66/94/54 65/93/54 69/96/54 
f 69/96/54 72/95/54 66/94/54 
# 12 faces

#
# object BE
#

v  0.3750 0.0000 0.3750
v  0.3750 0.0000 -0.3750
v  0.5000 0.0000 -0.3750
v  0.5000 0.0000 0.3750
v  0.3750 0.1250 0.3750
v  0.5000 0.1250 0.3750
v  0.5000 0.1250 -0.3750
v  0.3750 0.1250 -0.3750
# 8 vertices

vn 0.0000 -1.0000 -0.0000
vn 0.0000 1.0000 -0.0000
vn 0.0000 0.0000 1.0000
vn 1.0000 0.0000 -0.0000
vn 0.0000 0.0000 -1.0000
vn -1.0000 0.0000 -0.0000
# 6 vertex normals

vt 0.1250 0.1250 0.0000
vt 0.1250 0.8750 0.0000
vt 0.0000 0.8750 0.0000
vt -0.0000 0.1250 0.0000
vt 0.8750 0.8750 0.0000
vt 1.0000 0.8750 0.0000
vt 1.0000 0.1250 0.0000
vt 0.8750 0.1250 0.0000
vt 0.8750 -0.0000 0.0000
vt 1.0000 0.0000 0.0000
# 10 texture coords

g BE
s 2
f 73/103/55 74/104/55 75/105/55 
f 75/105/55 76/106/55 73/103/55 
s 4
f 77/107/56 78/108/56 79/109/56 
f 79/109/56 80/110/56 77/107/56 
s 8
f 73/111/57 76/112/57 78/109/57 
f 78/109/57 77/110/57 73/111/57 
s 16
f 76/106/58 75/105/58 79/104/58 
f 79/104/58 78/103/58 76/106/58 
s 32
f 75/112/59 74/111/59 80/110/59 
f 80/110/59 79/109/59 75/112/59 
s 64
f 74/106/60 73/105/60 77/104/60 
f 77/104/60 80/103/60 74/106/60 
# 12 faces

#
# object BW
#

v  -0.5000 0.0000 0.3750
v  -0.5000 0.0000 -0.3750
v  -0.3750 0.0000 -0.3750
v  -0.3750 0.0000 0.3750
v  -0.5000 0.1250 0.3750
v  -0.3750 0.1250 0.3750
v  -0.3750 0.1250 -0.3750
v  -0.5000 0.1250 -0.3750
# 8 vertices

vn 0.0000 -1.0000 -0.0000
vn 0.0000 1.0000 -0.0000
vn 0.0000 0.0000 1.0000
vn 1.0000 0.0000 -0.0000
vn 0.0000 0.0000 -1.0000
vn -1.0000 0.0000 -0.0000
# 6 vertex normals

vt 1.0000 0.1250 0.0000
vt 1.0000 0.8750 0.0000
vt 0.8750 0.8750 0.0000
vt 0.8750 0.1250 0.0000
vt 0.0000 0.8750 0.0000
vt 0.1250 0.8750 0.0000
vt 0.1250 0.1250 0.0000
vt -0.0000 0.1250 0.0000
vt -0.0000 0.0000 0.0000
vt 0.1250 -0.0000 0.0000
vt 0.8750 -0.0000 0.0000
vt 1.0000 0.0000 0.0000
# 12 texture coords

g BW
s 2
f 81/113/61 82/114/61 83/115/61 
f 83/115/61 84/116/61 81/113/61 
s 4
f 85/117/62 86/118/62 87/119/62 
f 87/119/62 88/120/62 85/117/62 
s 8
f 81/121/63 84/122/63 86/119/63 
f 86/119/63 85/120/63 81/121/63 
s 16
f 84/117/64 83/120/64 87/119/64 
f 87/119/64 86/118/64 84/117/64 
s 32
f 83/123/65 82/124/65 88/113/65 
f 88/113/65 87/116/65 83/123/65 
s 64
f 82/117/66 81/120/66 85/119/66 
f 85/119/66 88/118/66 82/117/66 
# 12 faces

#
# object TW
#

v  -0.5000 0.8750 0.3750
v  -0.5000 0.8750 -0.3750
v  -0.3750 0.8750 -0.3750
v  -0.3750 0.8750 0.3750
v  -0.5000 1.0000 0.3750
v  -0.3750 1.0000 0.3750
v  -0.3750 1.0000 -0.3750
v  -0.5000 1.0000 -0.3750
# 8 vertices

vn 0.0000 -1.0000 -0.0000
vn 0.0000 1.0000 -0.0000
vn 0.0000 0.0000 1.0000
vn 1.0000 0.0000 -0.0000
vn 0.0000 0.0000 -1.0000
vn -1.0000 0.0000 -0.0000
# 6 vertex normals

vt 0.0000 0.8750 0.0000
vt -0.0000 0.1250 0.0000
vt 0.1250 0.1250 0.0000
vt 0.1250 0.8750 0.0000
vt 1.0000 0.1250 0.0000
vt 0.8750 0.1250 0.0000
vt 0.8750 0.8750 0.0000
vt 1.0000 0.8750 0.0000
vt 0.1250 1.0000 0.0000
vt 0.0000 1.0000 0.0000
# 10 texture coords

g TW
s 2
f 89/125/67 90/126/67 91/127/67 
f 91/127/67 92/128/67 89/125/67 
s 4
f 93/129/68 94/130/68 95/131/68 
f 95/131/68 96/132/68 93/129/68 
s 8
f 89/125/69 92/128/69 94/133/69 
f 94/133/69 93/134/69 89/125/69 
s 16
f 92/131/70 91/130/70 95/129/70 
f 95/129/70 94/132/70 92/131/70 
s 32
f 91/128/71 90/125/71 96/134/71 
f 96/134/71 95/133/71 91/128/71 
s 64
f 90/131/72 89/130/72 93/129/72 
f 93/129/72 96/132/72 90/131/72 
# 12 faces

#
# object BNE
#

v  0.3750 0.0000 -0.3750
v  0.3750 0.0000 -0.5000
v  0.5000 0.0000 -0.5000
v  0.5000 0.0000 -0.3750
v  0.3750 0.1250 -0.3750
v  0.5000 0.1250 -0.3750
v  0.5000 0.1250 -0.5000
v  0.3750 0.1250 -0.5000
# 8 vertices

vn 0.0000 -1.0000 -0.0000
vn 0.0000 1.0000 -0.0000
vn 0.0000 0.0000 1.0000
vn 1.0000 0.0000 -0.0000
vn 0.0000 0.0000 -1.0000
vn -1.0000 0.0000 -0.0000
# 6 vertex normals

vt 0.1250 0.8750 0.0000
vt 0.1250 1.0000 0.0000
vt 0.0000 1.0000 0.0000
vt 0.0000 0.8750 0.0000
vt 0.8750 0.1250 0.0000
vt 1.0000 0.1250 0.0000
vt 1.0000 0.0000 0.0000
vt 0.8750 -0.0000 0.0000
vt -0.0000 0.0000 0.0000
vt 0.1250 -0.0000 0.0000
vt 0.1250 0.1250 0.0000
vt -0.0000 0.1250 0.0000
# 12 texture coords

g BNE
s 2
f 97/135/73 98/136/73 99/137/73 
f 99/137/73 100/138/73 97/135/73 
s 4
f 101/139/74 102/140/74 103/141/74 
f 103/141/74 104/142/74 101/139/74 
s 8
f 97/142/75 100/141/75 102/140/75 
f 102/140/75 101/139/75 97/142/75 
s 16
f 100/138/76 99/137/76 103/136/76 
f 103/136/76 102/135/76 100/138/76 
s 32
f 99/143/77 98/144/77 104/145/77 
f 104/145/77 103/146/77 99/143/77 
s 64
f 98/143/78 97/146/78 101/145/78 
f 101/145/78 104/144/78 98/143/78 
# 12 faces

#
# object TNE
#

v  0.3750 0.8750 -0.3750
v  0.3750 0.8750 -0.5000
v  0.5000 0.8750 -0.5000
v  0.5000 0.8750 -0.3750
v  0.3750 1.0000 -0.3750
v  0.5000 1.0000 -0.3750
v  0.5000 1.0000 -0.5000
v  0.3750 1.0000 -0.5000
# 8 vertices

vn 0.0000 -1.0000 -0.0000
vn 0.0000 1.0000 -0.0000
vn 0.0000 0.0000 1.0000
vn 1.0000 0.0000 -0.0000
vn 0.0000 0.0000 -1.0000
vn -1.0000 0.0000 -0.0000
# 6 vertex normals

vt 0.8750 0.1250 0.0000
vt 0.8750 -0.0000 0.0000
vt 1.0000 0.0000 0.0000
vt 1.0000 0.1250 0.0000
vt 0.1250 0.8750 0.0000
vt 0.0000 0.8750 0.0000
vt 0.0000 1.0000 0.0000
vt 0.1250 1.0000 0.0000
vt 0.8750 0.8750 0.0000
vt 1.0000 0.8750 0.0000
vt 1.0000 1.0000 0.0000
vt 0.8750 1.0000 0.0000
# 12 texture coords

g TNE
s 2
f 105/147/79 106/148/79 107/149/79 
f 107/149/79 108/150/79 105/147/79 
s 4
f 109/151/80 110/152/80 111/153/80 
f 111/153/80 112/154/80 109/151/80 
s 8
f 105/155/81 108/156/81 110/157/81 
f 110/157/81 109/158/81 105/155/81 
s 16
f 108/155/82 107/158/82 111/157/82 
f 111/157/82 110/156/82 108/155/82 
s 32
f 107/152/83 106/151/83 112/154/83 
f 112/154/83 111/153/83 107/152/83 
s 64
f 106/148/84 105/147/84 109/150/84 
f 109/150/84 112/149/84 106/148/84 
# 12 faces

#
# object TNW
#

v  -0.5000 0.8750 -0.3750
v  -0.5000 0.8750 -0.5000
v  -0.3750 0.8750 -0.5000
v  -0.3750 0.8750 -0.3750
v  -0.5000 1.0000 -0.3750
v  -0.3750 1.0000 -0.3750
v  -0.3750 1.0000 -0.5000
v  -0.5000 1.0000 -0.5000
# 8 vertices

vn 0.0000 -1.0000 -0.0000
vn 0.0000 1.0000 -0.0000
vn 0.0000 0.0000 1.0000
vn 1.0000 0.0000 -0.0000
vn 0.0000 0.0000 -1.0000
vn -1.0000 0.0000 -0.0000
# 6 vertex normals

vt -0.0000 0.1250 0.0000
vt -0.0000 0.0000 0.0000
vt 0.1250 -0.0000 0.0000
vt 0.1250 0.1250 0.0000
vt 1.0000 0.8750 0.0000
vt 0.8750 0.8750 0.0000
vt 0.8750 1.0000 0.0000
vt 1.0000 1.0000 0.0000
vt 0.0000 0.8750 0.0000
vt 0.1250 0.8750 0.0000
vt 0.1250 1.0000 0.0000
vt 0.0000 1.0000 0.0000
vt 0.8750 0.1250 0.0000
vt 0.8750 -0.0000 0.0000
vt 1.0000 0.0000 0.0000
vt 1.0000 0.1250 0.0000
# 16 texture coords

g TNW
s 2
f 113/159/85 114/160/85 115/161/85 
f 115/161/85 116/162/85 113/159/85 
s 4
f 117/163/86 118/164/86 119/165/86 
f 119/165/86 120/166/86 117/163/86 
s 8
f 113/167/87 116/168/87 118/169/87 
f 118/169/87 117/170/87 113/167/87 
s 16
f 116/171/88 115/172/88 119/173/88 
f 119/173/88 118/174/88 116/171/88 
s 32
f 115/164/89 114/163/89 120/166/89 
f 120/166/89 119/165/89 115/164/89 
s 64
f 114/165/90 113/164/90 117/163/90 
f 117/163/90 120/166/90 114/165/90 
# 12 faces

#
# object BNW
#

v  -0.5000 0.0000 -0.3750
v  -0.5000 0.0000 -0.5000
v  -0.3750 0.0000 -0.5000
v  -0.3750 0.0000 -0.3750
v  -0.5000 0.1250 -0.3750
v  -0.3750 0.1250 -0.3750
v  -0.3750 0.1250 -0.5000
v  -0.5000 0.1250 -0.5000
# 8 vertices

vn 0.0000 -1.0000 -0.0000
vn 0.0000 1.0000 -0.0000
vn 0.0000 0.0000 1.0000
vn 1.0000 0.0000 -0.0000
vn 0.0000 0.0000 -1.0000
vn -1.0000 0.0000 -0.0000
# 6 vertex normals

vt 1.0000 0.8750 0.0000
vt 1.0000 1.0000 0.0000
vt 0.8750 1.0000 0.0000
vt 0.8750 0.8750 0.0000
vt -0.0000 0.1250 0.0000
vt 0.1250 0.1250 0.0000
vt 0.1250 -0.0000 0.0000
vt -0.0000 0.0000 0.0000
vt 0.8750 -0.0000 0.0000
vt 1.0000 0.0000 0.0000
vt 1.0000 0.1250 0.0000
vt 0.8750 0.1250 0.0000
vt 0.0000 1.0000 0.0000
vt 0.0000 0.8750 0.0000
vt 0.1250 0.8750 0.0000
vt 0.1250 1.0000 0.0000
# 16 texture coords

g BNW
s 2
f 121/175/91 122/176/91 123/177/91 
f 123/177/91 124/178/91 121/175/91 
s 4
f 125/179/92 126/180/92 127/181/92 
f 127/181/92 128/182/92 125/179/92 
s 8
f 121/182/93 124/181/93 126/180/93 
f 126/180/93 125/179/93 121/182/93 
s 16
f 124/179/94 123/182/94 127/181/94 
f 127/181/94 126/180/94 124/179/94 
s 32
f 123/183/95 122/184/95 128/185/95 
f 128/185/95 127/186/95 123/183/95 
s 64
f 122/187/96 121/188/96 125/189/96 
f 125/189/96 128/190/96 122/187/96 
# 12 faces

#
# object BSW
#

v  -0.5000 0.0000 0.5000
v  -0.5000 0.0000 0.3750
v  -0.3750 0.0000 0.3750
v  -0.3750 0.0000 0.5000
v  -0.5000 0.1250 0.5000
v  -0.3750 0.1250 0.5000
v  -0.3750 0.1250 0.3750
v  -0.5000 0.1250 0.3750
# 8 vertices

vn 0.0000 -1.0000 -0.0000
vn 0.0000 1.0000 -0.0000
vn 0.0000 0.0000 1.0000
vn 1.0000 0.0000 -0.0000
vn 0.0000 0.0000 -1.0000
vn -1.0000 0.0000 -0.0000
# 6 vertex normals

vt 1.0000 0.0000 0.0000
vt 1.0000 0.1250 0.0000
vt 0.8750 0.1250 0.0000
vt 0.8750 -0.0000 0.0000
vt 0.0000 1.0000 0.0000
vt 0.1250 1.0000 0.0000
vt 0.1250 0.8750 0.0000
vt 0.0000 0.8750 0.0000
vt 0.1250 -0.0000 0.0000
vt -0.0000 0.0000 0.0000
vt -0.0000 0.1250 0.0000
vt 0.1250 0.1250 0.0000
# 12 texture coords

g BSW
s 2
f 129/191/97 130/192/97 131/193/97 
f 131/193/97 132/194/97 129/191/97 
s 4
f 133/195/98 134/196/98 135/197/98 
f 135/197/98 136/198/98 133/195/98 
s 8
f 129/191/99 132/194/99 134/193/99 
f 134/193/99 133/192/99 129/191/99 
s 16
f 132/195/100 131/198/100 135/197/100 
f 135/197/100 134/196/100 132/195/100 
s 32
f 131/199/101 130/200/101 136/201/101 
f 136/201/101 135/202/101 131/199/101 
s 64
f 130/201/102 129/200/102 133/199/102 
f 133/199/102 136/202/102 130/201/102 
# 12 faces

#
# object TSW
#

v  -0.5000 0.8750 0.5000
v  -0.5000 0.8750 0.3750
v  -0.3750 0.8750 0.3750
v  -0.3750 0.8750 0.5000
v  -0.5000 1.0000 0.5000
v  -0.3750 1.0000 0.5000
v  -0.3750 1.0000 0.3750
v  -0.5000 1.0000 0.3750
# 8 vertices

vn 0.0000 -1.0000 -0.0000
vn 0.0000 1.0000 -0.0000
vn 0.0000 0.0000 1.0000
vn 1.0000 0.0000 -0.0000
vn 0.0000 0.0000 -1.0000
vn -1.0000 0.0000 -0.0000
# 6 vertex normals

vt 0.0000 1.0000 0.0000
vt 0.0000 0.8750 0.0000
vt 0.1250 0.8750 0.0000
vt 0.1250 1.0000 0.0000
vt 1.0000 0.0000 0.0000
vt 0.8750 -0.0000 0.0000
vt 0.8750 0.1250 0.0000
vt 1.0000 0.1250 0.0000
vt 1.0000 0.8750 0.0000
vt 0.8750 0.8750 0.0000
vt 0.8750 1.0000 0.0000
vt 1.0000 1.0000 0.0000
# 12 texture coords

g TSW
s 2
f 137/203/103 138/204/103 139/205/103 
f 139/205/103 140/206/103 137/203/103 
s 4
f 141/207/104 142/208/104 143/209/104 
f 143/209/104 144/210/104 141/207/104 
s 8
f 137/211/105 140/212/105 142/213/105 
f 142/213/105 141/214/105 137/211/105 
s 16
f 140/213/106 139/212/106 143/211/106 
f 143/211/106 142/214/106 140/213/106 
s 32
f 139/205/107 138/204/107 144/203/107 
f 144/203/107 143/206/107 139/205/107 
s 64
f 138/209/108 137/208/108 141/207/108 
f 141/207/108 144/210/108 138/209/108 
# 12 faces

#
# object TSE
#

v  0.3750 0.8750 0.5000
v  0.3750 0.8750 0.3750
v  0.5000 0.8750 0.3750
v  0.5000 0.8750 0.5000
v  0.3750 1.0000 0.5000
v  0.5000 1.0000 0.5000
v  0.5000 1.0000 0.3750
v  0.3750 1.0000 0.3750
# 8 vertices

vn 0.0000 -1.0000 -0.0000
vn 0.0000 1.0000 -0.0000
vn 0.0000 0.0000 1.0000
vn 1.0000 0.0000 -0.0000
vn 0.0000 0.0000 -1.0000
vn -1.0000 0.0000 -0.0000
# 6 vertex normals

vt 0.8750 1.0000 0.0000
vt 0.8750 0.8750 0.0000
vt 1.0000 0.8750 0.0000
vt 1.0000 1.0000 0.0000
vt 0.1250 -0.0000 0.0000
vt -0.0000 0.0000 0.0000
vt -0.0000 0.1250 0.0000
vt 0.1250 0.1250 0.0000
vt 0.1250 0.8750 0.0000
vt 0.0000 0.8750 0.0000
vt 0.0000 1.0000 0.0000
vt 0.1250 1.0000 0.0000
vt 0.8750 -0.0000 0.0000
vt 0.8750 0.1250 0.0000
vt 1.0000 0.1250 0.0000
vt 1.0000 0.0000 0.0000
# 16 texture coords

g TSE
s 2
f 145/215/109 146/216/109 147/217/109 
f 147/217/109 148/218/109 145/215/109 
s 4
f 149/219/110 150/220/110 151/221/110 
f 151/221/110 152/222/110 149/219/110 
s 8
f 145/223/111 148/224/111 150/225/111 
f 150/225/111 149/226/111 145/223/111 
s 16
f 148/227/112 147/228/112 151/229/112 
f 151/229/112 150/230/112 148/227/112 
s 32
f 147/217/113 146/216/113 152/215/113 
f 152/215/113 151/218/113 147/217/113 
s 64
f 146/216/114 145/215/114 149/218/114 
f 149/218/114 152/217/114 146/216/114 
# 12 faces

#
# object BSE
#

v  0.3750 0.0000 0.5000
v  0.3750 0.0000 0.3750
v  0.5000 0.0000 0.3750
v  0.5000 0.0000 0.5000
v  0.3750 0.1250 0.5000
v  0.5000 0.1250 0.5000
v  0.5000 0.1250 0.3750
v  0.3750 0.1250 0.3750
# 8 vertices

vn 0.0000 -1.0000 -0.0000
vn 0.0000 1.0000 -0.0000
vn 0.0000 0.0000 1.0000
vn 1.0000 0.0000 -0.0000
vn 0.0000 0.0000 -1.0000
vn -1.0000 0.0000 -0.0000
# 6 vertex normals

vt 0.1250 -0.0000 0.0000
vt 0.1250 0.1250 0.0000
vt -0.0000 0.1250 0.0000
vt -0.0000 0.0000 0.0000
vt 0.8750 1.0000 0.0000
vt 1.0000 1.0000 0.0000
vt 1.0000 0.8750 0.0000
vt 0.8750 0.8750 0.0000
vt 1.0000 0.0000 0.0000
vt 0.8750 -0.0000 0.0000
vt 0.8750 0.1250 0.0000
vt 1.0000 0.1250 0.0000
vt 0.0000 0.8750 0.0000
vt 0.0000 1.0000 0.0000
vt 0.1250 1.0000 0.0000
vt 0.1250 0.8750 0.0000
# 16 texture coords

g BSE
s 2
f 153/231/115 154/232/115 155/233/115 
f 155/233/115 156/234/115 153/231/115 
s 4
f 157/235/116 158/236/116 159/237/116 
f 159/237/116 160/238/116 157/235/116 
s 8
f 153/231/117 156/234/117 158/233/117 
f 158/233/117 157/232/117 153/231/117 
s 16
f 156/234/118 155/233/118 159/232/118 
f 159/232/118 158/231/118 156/234/118 
s 32
f 155/239/119 154/240/119 160/241/119 
f 160/241/119 159/242/119 155/239/119 
s 64
f 154/243/120 153/244/120 157/245/120 
f 157/245/120 160/246/120 154/243/120 
# 12 faces

